HIERARCHY
ROOT hips
{
  OFFSET 4.514983404067499e-9 10.105397940993303 1.318478203070619
  CHANNELS 6 Xposition Yposition Zposition Yrotation Xrotation Zrotation
  JOINT spine
  {
    OFFSET -3.891297943093837e-9 0.5743022203102706 0
    CHANNELS 3 Yrotation Xrotation Zrotation
    JOINT chest
    {
      OFFSET 0 1.2550312016247926 0
      CHANNELS 3 Yrotation Xrotation Zrotation
      JOINT upperChest
      {
        OFFSET 0 1.2059856050120283 0
        CHANNELS 3 Yrotation Xrotation Zrotation
        JOINT neck
        {
          OFFSET 0 1.5290392449770056 0
          CHANNELS 3 Yrotation Xrotation Zrotation
          JOINT head
          {
            OFFSET 0 0.8186276690878121 0
            CHANNELS 3 Yrotation Xrotation Zrotation
            JOINT leftEye
            {
              OFFSET 0.4540883942785781 -0.2684596961258452 0.6133497327236779
              CHANNELS 3 Yrotation Xrotation Zrotation
              End Site
              {
                OFFSET 0.4540883942785781 -0.2684596961258452 0.6133497327236779
              }
            }
            JOINT rightEye
            {
              OFFSET -0.4540889229417456 -0.26846010916843954 0.6133525398671689
              CHANNELS 3 Yrotation Xrotation Zrotation
              End Site
              {
                OFFSET -0.4540889229417456 -0.26846010916843954 0.6133525398671689
              }
            }
          }
        }
        JOINT leftShoulder
        {
          OFFSET 1.1700010731725468 -0.4176065950681176 0
          CHANNELS 3 Yrotation Xrotation Zrotation
          JOINT leftUpperArm
          {
            OFFSET 1.1803911524554955 0 0
            CHANNELS 3 Yrotation Xrotation Zrotation
            JOINT leftLowerArm
            {
              OFFSET 2.4406171707858904 0 0
              CHANNELS 3 Yrotation Xrotation Zrotation
              JOINT leftHand
              {
                OFFSET 2.3832177068873874 0 0
                CHANNELS 3 Yrotation Xrotation Zrotation
                JOINT leftIndexProximal
                {
                  OFFSET 0.7310175006235151 0.08192774217833776 0.20404791572985242
                  CHANNELS 3 Yrotation Xrotation Zrotation
                  JOINT leftIndexIntermediate
                  {
                    OFFSET 0.3688845439429529 -0.010662034455094949 -0.014226011560394963
                    CHANNELS 3 Yrotation Xrotation Zrotation
                    JOINT leftIndexDistal
                    {
                      OFFSET 0.2271119941018298 -0.007897656478952575 -0.007580683836364496
                      CHANNELS 3 Yrotation Xrotation Zrotation
                      End Site
                      {
                        OFFSET 0.2271119941018298 -0.007897656478952575 -0.007580683836364496
                      }
                    }
                  }
                }
                JOINT leftLittleProximal
                {
                  OFFSET 0.678269929308182 0.08192620621401336 -0.323876516389586
                  CHANNELS 3 Yrotation Xrotation Zrotation
                  JOINT leftLittleIntermediate
                  {
                    OFFSET 0.34904545821382604 -0.0000017106393073174075 8.629360392919949e-9
                    CHANNELS 3 Yrotation Xrotation Zrotation
                    JOINT leftLittleDistal
                    {
                      OFFSET 0.2011060672849896 0.0031247840072243793 0.0038660318003989197
                      CHANNELS 3 Yrotation Xrotation Zrotation
                      End Site
                      {
                        OFFSET 0.2011060672849896 0.0031247840072243793 0.0038660318003989197
                      }
                    }
                  }
                }
                JOINT leftMiddleProximal
                {
                  OFFSET 0.7368181082522638 0.0819260272939426 0.02272335773438093
                  CHANNELS 3 Yrotation Xrotation Zrotation
                  JOINT leftMiddleIntermediate
                  {
                    OFFSET 0.41136739116025356 -0.0000015892429323649537 5.27860346960507e-8
                    CHANNELS 3 Yrotation Xrotation Zrotation
                    JOINT leftMiddleDistal
                    {
                      OFFSET 0.25378150303820757 -0.0000015332469289752737 1.3442958385345705e-8
                      CHANNELS 3 Yrotation Xrotation Zrotation
                      End Site
                      {
                        OFFSET 0.25378150303820757 -0.0000015332469289752737 1.3442958385345705e-8
                      }
                    }
                  }
                }
                JOINT leftRingProximal
                {
                  OFFSET 0.7284256823094712 0.08192611199801392 -0.1508405069143483
                  CHANNELS 3 Yrotation Xrotation Zrotation
                  JOINT leftRingIntermediate
                  {
                    OFFSET 0.381593741461262 -0.0000016975471202052006 6.592486757883709e-8
                    CHANNELS 3 Yrotation Xrotation Zrotation
                    JOINT leftRingDistal
                    {
                      OFFSET 0.22014536669820362 -0.0027420652959939673 -0.005037497035641991
                      CHANNELS 3 Yrotation Xrotation Zrotation
                      End Site
                      {
                        OFFSET 0.22014536669820362 -0.0027420652959939673 -0.005037497035641991
                      }
                    }
                  }
                }
                JOINT leftThumbProximal
                {
                  OFFSET 0.10842212958334652 -0.16573713992498873 -0.07779936144556289
                  CHANNELS 3 Yrotation Xrotation Zrotation
                  JOINT leftThumbIntermediate
                  {
                    OFFSET 0.40720553822379024 -0.01751267955631075 0.31852684427382305
                    CHANNELS 3 Yrotation Xrotation Zrotation
                    JOINT leftThumbDistal
                    {
                      OFFSET 0.23412859218032667 -0.01859690713588802 0.2146635043319005
                      CHANNELS 3 Yrotation Xrotation Zrotation
                      End Site
                      {
                        OFFSET 0.23412859218032667 -0.01859690713588802 0.2146635043319005
                      }
                    }
                  }
                }
              }
            }
          }
        }
        JOINT rightShoulder
        {
          OFFSET -1.1700037144859516 -0.41760703856471126 0
          CHANNELS 3 Yrotation Xrotation Zrotation
          JOINT rightUpperArm
          {
            OFFSET -1.1803910289368023 0 0
            CHANNELS 3 Yrotation Xrotation Zrotation
            JOINT rightLowerArm
            {
              OFFSET -2.440617418222133 0 0
              CHANNELS 3 Yrotation Xrotation Zrotation
              JOINT rightHand
              {
                OFFSET -2.3832181162662343 0 0
                CHANNELS 3 Yrotation Xrotation Zrotation
                JOINT rightIndexProximal
                {
                  OFFSET -0.7310168852843362 0.08192787643494381 0.20404785424302163
                  CHANNELS 3 Yrotation Xrotation Zrotation
                  JOINT rightIndexIntermediate
                  {
                    OFFSET -0.3688846010723953 -0.01066191355993129 -0.014226020535245201
                    CHANNELS 3 Yrotation Xrotation Zrotation
                    JOINT rightIndexDistal
                    {
                      OFFSET -0.22711216276130997 -0.007898902439410271 -0.007580718044857868
                      CHANNELS 3 Yrotation Xrotation Zrotation
                      End Site
                      {
                        OFFSET -0.22711216276130997 -0.007898902439410271 -0.007580718044857868
                      }
                    }
                  }
                }
                JOINT rightLittleProximal
                {
                  OFFSET -0.6782685897119165 0.08192501740206293 -0.3238766118101876
                  CHANNELS 3 Yrotation Xrotation Zrotation
                  JOINT rightLittleIntermediate
                  {
                    OFFSET -0.34904682243945895 -2.664019085329983e-7 3.792712677253007e-8
                    CHANNELS 3 Yrotation Xrotation Zrotation
                    JOINT rightLittleDistal
                    {
                      OFFSET -0.20110609302945537 0.0031260842677420797 0.0038661724369087186
                      CHANNELS 3 Yrotation Xrotation Zrotation
                      End Site
                      {
                        OFFSET -0.20110609302945537 0.0031260842677420797 0.0038661724369087186
                      }
                    }
                  }
                }
                JOINT rightMiddleProximal
                {
                  OFFSET -0.7368168209984411 0.08192485183145659 0.022723294831187846
                  CHANNELS 3 Yrotation Xrotation Zrotation
                  JOINT rightMiddleIntermediate
                  {
                    OFFSET -0.4113687575187084 -9.03141548214137e-8 4.759541079313312e-8
                    CHANNELS 3 Yrotation Xrotation Zrotation
                    JOINT rightMiddleDistal
                    {
                      OFFSET -0.2537822083525749 -9.554208624251714e-8 -1.6364827826187422e-9
                      CHANNELS 3 Yrotation Xrotation Zrotation
                      End Site
                      {
                        OFFSET -0.2537822083525749 -9.554208624251714e-8 -1.6364827826187422e-9
                      }
                    }
                  }
                }
                JOINT rightRingProximal
                {
                  OFFSET -0.7284243957721679 0.08192492753028224 -0.15084062217729294
                  CHANNELS 3 Yrotation Xrotation Zrotation
                  JOINT rightRingIntermediate
                  {
                    OFFSET -0.381595106800805 -2.5662436442530634e-7 2.929475539925619e-8
                    CHANNELS 3 Yrotation Xrotation Zrotation
                    JOINT rightRingDistal
                    {
                      OFFSET -0.22014544912608125 -0.002738002524970362 -0.0050375115645966
                      CHANNELS 3 Yrotation Xrotation Zrotation
                      End Site
                      {
                        OFFSET -0.22014544912608125 -0.002738002524970362 -0.0050375115645966
                      }
                    }
                  }
                }
                JOINT rightThumbProximal
                {
                  OFFSET -0.10842026863657162 -0.16573778435706465 -0.07779917642461898
                  CHANNELS 3 Yrotation Xrotation Zrotation
                  JOINT rightThumbIntermediate
                  {
                    OFFSET -0.40720600760521597 -0.017512298079938038 0.3185267362029824
                    CHANNELS 3 Yrotation Xrotation Zrotation
                    JOINT rightThumbDistal
                    {
                      OFFSET -0.2341289751103648 -0.018594162598156494 0.21466399510514025
                      CHANNELS 3 Yrotation Xrotation Zrotation
                      End Site
                      {
                        OFFSET -0.2341289751103648 -0.018594162598156494 0.21466399510514025
                      }
                    }
                  }
                }
              }
            }
          }
        }
      }
    }
  }
  JOINT leftUpperLeg
  {
    OFFSET -0.8565189721517369 0.4427277044191169 0
    CHANNELS 3 Yrotation Xrotation Zrotation
    JOINT leftLowerLeg
    {
      OFFSET 0 -3.918486704769693 0
      CHANNELS 3 Yrotation Xrotation Zrotation
      JOINT leftFoot
      {
        OFFSET 6.174701361744139e-7 -0.055233446196002234 4.612027801972084
        CHANNELS 3 Yrotation Xrotation Zrotation
        JOINT leftToes
        {
          OFFSET -3.4372540951010944e-7 -0.705284859504459 1.2256624571888697
          CHANNELS 3 Yrotation Xrotation Zrotation
          End Site
          {
            OFFSET -3.4372540951010944e-7 -0.705284859504459 1.2256624571888697
          }
        }
      }
    }
  }
  JOINT rightUpperLeg
  {
    OFFSET 0.8565189732197466 0.44272769569168136 0
    CHANNELS 3 Yrotation Xrotation Zrotation
    JOINT rightLowerLeg
    {
      OFFSET 0 -3.918486692649319 0
      CHANNELS 3 Yrotation Xrotation Zrotation
      JOINT rightFoot
      {
        OFFSET 6.995136552362391e-7 -0.05523244834012664 4.612028499942008
        CHANNELS 3 Yrotation Xrotation Zrotation
        JOINT rightToes
        {
          OFFSET -4.2566694985479714e-7 -0.7052846587611067 1.22566236096697
          CHANNELS 3 Yrotation Xrotation Zrotation
          End Site
          {
            OFFSET -4.2566694985479714e-7 -0.7052846587611067 1.22566236096697
          }
        }
      }
    }
  }
}
MOTION
Frames: 4
Frame Time: 0.03333333333333333
-0.17668521404266357 -0.5832936776876387 0.15878911316394806 7.696035675685497 2.5973182276591817 4.265783305259232 0.12971106314921374 2.997593271884835 -0.2905987608466696 0.6439036474223889 11.987644792911373 -0.003027228371970346 0 0 0 -7.637683674777153 10.151917480989734 -5.150398570703654 -1.426594320378414 27.45156186382661 -7.9499969726628885 0 0 0 0 0 0 -6.49766279988328 -0.7553951290888256 -9.164530676553326 -8.642636770711205 -6.2249567325751975 -65.49331114146973 -118.38117284168955 1.6584889307963713 0.6509287748378134 -15.963329752444134 28.77525236471882 14.155821293021758 -0.4204607330179513 -4.919192233125774 -12.64558803267682 1.357966629613861 0.20812652697824904 -16.00934442541128 -1.281281483810888e-10 1.793762613445802e-24 1.6042536111691759e-12 7.915564459529684 4.409961952149107 -24.623690374520436 -3.478669537294139 -0.702198004134307 -19.102987185619043 -0.000012422866751234024 -0.000010448329551661817 -0.000012935329934841376 1.9284525342089749 -0.7222677178517384 -17.2180844998849 -0.6884253888501547 -0.21159724685399853 -15.419033437242625 1.139979627027678e-10 6.3611093629270335e-15 -1.43444452663829e-12 5.111257768902697 0.8450077420385413 -24.389278548980954 -1.2248100277026377 -0.530147371360788 -22.47727271517225 0 0 0 0.5202476009478733 -24.0926923996443 2.286661979853937 13.86241486794596 7.57216143734886 -2.19663335800776 0.00001169524703297903 -0.000005629942893646748 -0.000011539157418987284 5.773842122409695 0.23935461713353443 4.887057507634952 3.433505803014977 -24.3535840425261 55.674616541124905 134.8853597980713 2.7139676185136703 -0.5243003646097693 -0.15131934848346565 -1.716191486048891 -10.857792610126694 -5.325991263929004 -5.214984960771412 19.44230294924514 -1.2487866143739825 0.23803253716964623 26.895196571802842 0.0000021377813822646306 -0.000002503579978623371 -0.0000043376361999144435 -5.071287155132912 1.9806342689368759 32.419524317220265 1.3632258983742436 -0.3030176858062812 11.240004352098238 0.000002582452645836173 -0.0000011012822742303388 0.00001260242794277522 -3.4831848357024295 0.09739489592029595 24.386333134052776 1.1698989711690602 -0.26701504584578606 18.00114170238092 1.215836204053751e-9 -3.180554491887685e-15 -1.6036856771618462e-11 -5.203921824614605 -0.9214290350338864 29.15097144227321 0.3525031898477978 1.144813849897582 14.66537084562287 0.0000055923600346420515 -0.0000067498079529923256 0.00001014127666538042 -9.918259936511548 -27.818817080053957 7.632469164405107 -1.9376096350060608 1.0697085070102461 -0.055896799888161264 0.000007940946749194555 -0.0000043695247973729345 -0.000004501439346008556 6.371924577106201 -23.725327966243377 2.4065335698190116 -1.3050904820168552 43.09685380249518 -2.5131622383928467 4.689380064585416 -7.0135212838867815 -3.8651556084431666 -3.007728370707901 -12.222375648351294 -2.3413858264372895 0.4712471723746937 -26.128595557222443 -10.65159187492536 0.47118988791154254 39.380283331209526 1.8469762073457958 -8.440545158404156 -15.059014897243246 5.702699948537127 -3.9593169551962606 -1.007140632250438 2.5415453645647488
-0.12853948771953583 -0.5499074472188887 0.2791714668273926 7.255033507032638 1.4444319279035984 4.437862774959301 0.27463404341041725 2.5084163978707394 -0.06904137067575442 1.2420379823496486 10.020351345457897 0.968385499956965 0 0 0 0.5037094966845647 11.919764604059559 -5.134411260752445 6.350544844618107 25.168580524447524 -2.667911797403493 0 0 0 0 0 0 -5.254533505221154 -0.5031977106454057 -7.30715101425021 -8.446754251891393 3.8267390566714017 -69.84107930852741 -104.88312027821479 1.3083689932694877 0.715097507654718 -19.453327728993713 47.11864377025943 19.47629106316468 -1.5134560243373754 -4.134134643561136 -10.366931842080133 1.3194641837710364 0.1391310634464663 -14.99229881832032 -1.281281483810888e-10 1.793762613445802e-24 1.6042536111691759e-12 9.334505802871227 4.245722292260344 -22.202101377506168 -3.7663533654686017 -0.8189226872534286 -20.713971634605816 -0.000012422866751234024 -0.000010448329551661817 -0.000012935329934841376 2.1653551100002923 -0.7606913370981049 -15.034895139755683 -0.5731459121990842 -0.1959071758754013 -13.698225885359477 1.139979627027678e-10 6.3611093629270335e-15 -1.43444452663829e-12 5.7428946236644 1.0738957186843823 -22.796321582309034 -1.2424917251260474 -0.5508049704001902 -22.550602035494638 0 0 0 -1.3085206942797 -20.4410051291988 4.3307662388534895 13.704121636433618 7.847850456452829 -2.9783443068239115 0.00001169524703297903 -0.000005629942893646748 -0.000011539157418987284 6.018740617739593 -0.11138318661248725 6.407886612983536 -5.279864916757181 -4.601998545509038 57.1831658822127 133.7638230878508 2.615838664734768 -0.5343834505975764 3.355170467120028 8.398115922507442 -13.121460462300396 -3.519526354277123 -6.7538574470676185 19.825701381433415 -1.1073136814298128 0.16936465887288427 22.45138448279609 0.0000021377813822646306 -0.000002503579978623371 -0.0000043376361999144435 -4.376573486831338 1.677348670480865 30.859488760313276 1.2665284047095635 -0.28218384294757937 10.562829201436688 0.000002582452645836173 -0.0000011012822742303388 0.00001260242794277522 -2.311312649650146 -1.113977879248849 22.942701127351185 1.007132737625576 -0.21607181231603867 15.84436239811335 1.215836204053751e-9 -3.180554491887685e-15 -1.6036856771618462e-11 -4.3645544544083155 -1.2517395275826846 26.53074951702958 0.2388681668412777 0.8567618727607847 14.28553036309295 0.0000055923600346420515 -0.0000067498079529923256 0.00001014127666538042 -7.14047140781062 -27.501200388219797 9.530466605843772 -2.751710561743681 1.2296767925601622 -0.4193842138649954 0.000007940946749194555 -0.0000043695247973729345 -0.000004501439346008556 8.097120519069927 -21.92682166096393 2.2760828016357046 -1.2540458778893089 43.13142608959743 -2.487596559044934 3.869030338809462 -4.896572234626344 -4.040600144609423 -2.9647724282917807 -15.213945547794614 -1.7902350546075096 0.338027583131518 -23.600573202211606 -11.024506939403631 0.21099166309252884 38.49120096968385 1.637577590872713 -8.10146052422018 -15.816836222684042 6.2465709547891946 -3.687394578477449 -1.017323472063547 2.3492141506490154
-0.0900203213095665 -0.5289428247213301 0.3588075637817383 6.948903764748044 0.7098995738153271 4.352213357120587 0.3673939978207233 2.1368568452629817 0.14593029627927695 1.6147072811645868 8.521373367904866 1.818174872877913 0 0 0 6.488165200403345 13.181769475815646 -5.153605114027588 11.24449656413437 22.968759500673766 1.4324319673600543 0 0 0 0 0 0 -4.856167377657314 -0.42916846424274446 -6.704297601853703 -7.760414360297814 7.787467036244179 -71.55907852109597 -92.77744840246618 1.0268621750022502 0.7390593079933184 -15.57743130611139 55.958606734678554 29.413374575515007 -2.1343618971708733 -3.6313827823076394 -9.014402714006403 1.295546435917684 0.09821331919390018 -14.387091556218104 -1.281281483810888e-10 1.793762613445802e-24 1.6042536111691759e-12 10.166116213130358 4.100805661284149 -20.755963481662402 -3.935822667325776 -0.8920497260122502 -21.67239304276493 -0.000012422866751234024 -0.000010448329551661817 -0.000012935329934841376 2.3039771902117483 -0.7894958669219564 -13.735613403260986 -0.504517858337724 -0.18831277657663562 -12.674184312160936 1.139979627027678e-10 6.3611093629270335e-15 -1.43444452663829e-12 6.12331752757815 1.1951826972161388 -21.846610391668072 -1.2529681095627976 -0.5631195829113128 -22.59424130565896 0 0 0 -2.3279379372091813 -18.246616850350648 5.470246390662574 13.608327998182888 8.011581870394174 -3.4438336305197135 0.00001169524703297903 -0.000005629942893646748 -0.000011539157418987284 5.748508399644487 -0.2773173818773463 6.823794211700278 -10.026649559067247 7.631797454907474 57.56774899095802 129.1037265149991 2.4133987324586688 -0.5741974922580569 6.551487416696475 14.61661338528003 -14.056125435638195 -2.164276903706803 -7.928776178466565 20.106617827120882 -0.9969921222534902 0.12510995510878958 19.09147684706324 0.0000021377813822646306 -0.000002503579978623371 -0.0000043376361999144435 -3.8369558969279907 1.4754598105534429 29.679603640501483 1.1932036465718177 -0.267318032062404 10.050788945912087 0.000002582452645836173 -0.0000011012822742303388 0.00001260242794277522 -1.385816716049221 -1.9902988123425234 21.844941520592574 0.8828725383977184 -0.18167385145589313 14.213610488713897 1.215836204053751e-9 -3.180554491887685e-15 -1.6036856771618462e-11 -3.7059660959184613 -1.4462770929307263 24.547864584303333 0.15553919156721763 0.6381585155105732 13.998637125778052 0.0000055923600346420515 -0.0000067498079529923256 0.00001014127666538042 -4.989297346289764 -27.249133474663477 10.91058273504224 -3.366751240615288 1.3498587217915563 -0.6972085058051203 0.000007940946749194555 -0.0000043695247973729345 -0.000004501439346008556 8.716749707542624 -20.758307490523414 2.4320218820702864 -1.2035069067807043 43.17800559953534 -2.458940178558784 3.465754854062863 -3.6841796967687834 -4.1746078730621115 -3.0616719323714636 -17.637164772085402 -1.4492179892756243 0.10219827226685112 -21.96273090158911 -11.140897336886448 0.06246151727096976 37.855671670585075 1.516284402942766 -7.829237189550526 -16.12079552000893 7.042940598632786 -3.3807234033986857 -0.956600695454482 2.1483862009925367
-0.050756603479385376 -0.5090692056417403 0.43319806456565857 6.771633873984736 0.08704013561964853 4.125762656662936 0.41820020915513456 1.7175430828767018 0.35321801703950984 1.7971969052000976 6.832716651754954 2.5760176132594195 0 0 0 12.16763455676926 13.95008667770912 -4.551032409857833 15.305472661990205 20.199328734745965 5.207600824757929 0 0 0 0 0 0 -4.729755135936392 -0.4190639630629234 -6.561704731606068 -4.152108159885974 10.787025188838921 -70.99465406664453 -81.93366677933466 0.9288258134361238 0.7326563719571108 -13.47147815528635 58.8480467890467 32.62619243160436 -2.658513931821584 -3.170783730408872 -7.833879340401965 1.2739864781693264 0.06254354105243454 -13.857854305099043 -1.281281483810888e-10 1.793762613445802e-24 1.6042536111691759e-12 10.88420232075029 3.945593411730634 -19.488940679764248 -4.082938111002223 -0.958254045506495 -22.510381337426164 -0.000012422866751234024 -0.000010448329551661817 -0.000012935329934841376 2.423648332291598 -0.8182076322123504 -12.599337421288658 -0.4444694823523626 -0.18274327505659388 -11.778646282538984 1.139979627027678e-10 6.3611093629270335e-15 -1.43444452663829e-12 6.458497956645409 1.2920518456358094 -21.015093165396106 -1.2621468953445416 -0.573906957007117 -22.63238925384305 0 0 0 -3.181903474698638 -16.316159833099462 6.424362318586154 13.523589654152818 8.15456922248084 -3.851113283321193 0.00001169524703297903 -0.000005629942893646748 -0.000011539157418987284 5.2785431919848715 -0.43307835130057454 7.054039199632997 -13.652835297308224 17.217105863190877 57.72710571037366 121.14902867621821 2.1618099272074196 -0.6332664367299238 9.681880833588126 19.63841501500606 -13.591651106398277 -0.817569185025034 -9.11313158225501 20.379657943107137 -0.8842027646790905 0.08758949957828581 15.731488444699295 0.0000021377813822646306 -0.000002503579978623371 -0.0000043376361999144435 -3.285815114678014 1.2975486699700858 28.499650159942625 1.119766668799204 -0.25323328958153796 9.53875323023624 0.000002582452645836173 -0.0000011012822742303388 0.00001260242794277522 -0.42719561389505456 -2.8314520979795272 20.74183895232684 0.7576718175588111 -0.15081639394430565 12.582803607294359 1.215836204053751e-9 -3.180554491887685e-15 -1.6036856771618462e-11 -3.029595921310244 -1.5921559372920395 22.564347431287064 0.0744338609161155 0.4188370933319415 13.711956480464584 0.0000055923600346420515 -0.0000067498079529923256 0.00001014127666538042 -2.7953897108828327 -26.9866694619532 12.243753738459214 -3.981401544799109 1.469370607313719 -0.977604167908051 0.000007940946749194555 -0.0000043695247973729345 -0.000004501439346008556 8.840330790965494 -19.733174375660393 2.699137030162252 -1.1524280543491883 43.199893849603825 -2.427858251173732 3.3815985806332494 -2.721069824151012 -4.273547344558766 -3.258843253369153 -19.737548179258898 -1.2018919282105525 -0.0560693589446802 -20.441692135161997 -11.16689457143942 -0.01738126433960349 37.19008827277458 1.4410756988734106 -7.735009288079607 -16.121888647987276 8.198934801904304 -3.122330048404459 -0.9941365302457672 1.9588945851710897
